<?xml version="1.0" encoding="iso-8859-1"?>
<!-- Generator: Adobe Illustrator 19.0.0, SVG Export Plug-In . SVG Version: 6.00 Build 0)  -->
<svg version="1.1" id="Layer_1" xmlns="http://www.w3.org/2000/svg" xmlns:xlink="http://www.w3.org/1999/xlink" x="0px" y="0px"
	 viewBox="0 0 512 512" style="enable-background:new 0 0 512 512;" xml:space="preserve">
<g>
	<g>
		<path d="M332.282,170.662H181.946c-5.77,0-10.449,4.678-10.449,10.449v150.336c0,5.771,4.679,10.449,10.449,10.449h150.336
			c5.77,0,10.449-4.678,10.449-10.449V181.111C342.731,175.34,338.052,170.662,332.282,170.662z M321.833,320.998H192.395V191.56
			h129.438V320.998z"/>
	</g>
</g>
<g>
	<g>
		<path d="M501.551,205.335c5.77,0,10.449-4.678,10.449-10.449c0-5.771-4.679-10.449-10.449-10.449h-34.482v-41.286h34.482
			c5.77,0,10.449-4.678,10.449-10.449c0-5.771-4.679-10.449-10.449-10.449h-34.482V90.144c0-24.93-20.279-45.214-45.206-45.214
			h-29.974V10.449C391.889,4.678,387.21,0,381.44,0c-5.77,0-10.449,4.678-10.449,10.449v34.482h-41.287V10.449
			C329.704,4.678,325.025,0,319.255,0c-5.77,0-10.449,4.678-10.449,10.449v34.482h-41.287V10.449C267.519,4.678,262.84,0,257.07,0
			c-5.77,0-10.449,4.678-10.449,10.449v34.482h-41.286V10.449C205.335,4.678,200.656,0,194.886,0
			c-5.77,0-10.449,4.678-10.449,10.449v34.482h-41.286V10.449C143.151,4.678,138.472,0,132.702,0
			c-5.77,0-10.449,4.678-10.449,10.449v34.482H90.144c-24.931,0-45.214,20.284-45.214,45.214v29.967H10.449
			C4.679,120.111,0,124.789,0,130.56c0,5.771,4.679,10.449,10.449,10.449h34.482v41.287H10.449C4.679,182.296,0,186.974,0,192.745
			c0,5.771,4.679,10.449,10.449,10.449h34.482v41.286H10.449C4.679,244.48,0,249.158,0,254.929c0,5.771,4.679,10.449,10.449,10.449
			h34.482v41.287H10.449C4.679,306.665,0,311.343,0,317.114s4.679,10.449,10.449,10.449h34.482v41.286H10.449
			C4.679,368.849,0,373.527,0,379.298s4.679,10.449,10.449,10.449h34.482v32.114c0,24.928,20.283,45.209,45.214,45.209h29.968
			v34.482c0,5.771,4.679,10.449,10.449,10.449c5.77,0,10.449-4.678,10.449-10.449v-34.482h41.287v34.482
			c0,5.771,4.679,10.449,10.449,10.449c5.77,0,10.449-4.678,10.449-10.449v-34.482h41.287v34.482
			c0,5.771,4.679,10.449,10.449,10.449c5.77,0,10.449-4.678,10.449-10.449v-34.482h41.286v34.482
			c0,5.771,4.679,10.449,10.449,10.449s10.449-4.678,10.449-10.449v-34.482h41.285v34.482c0,5.771,4.679,10.449,10.449,10.449
			c5.77,0,10.449-4.678,10.449-10.449v-34.482h32.116c24.927,0,45.206-20.28,45.206-45.209v-29.972h34.482
			c5.77,0,10.449-4.678,10.449-10.449c0-5.771-4.679-10.449-10.449-10.449h-34.482v-41.287h34.482
			c5.77,0,10.449-4.678,10.449-10.449c0-5.771-4.679-10.449-10.449-10.449h-34.482V267.52h34.482c5.77,0,10.449-4.678,10.449-10.449
			c0-5.771-4.679-10.449-10.449-10.449h-34.482v-41.287H501.551z M446.171,122.253h-26.805c-5.77,0-10.449,4.678-10.449,10.449
			c0,5.771,4.679,10.449,10.449,10.449h26.805v41.286h-26.805c-5.77,0-10.449,4.678-10.449,10.449
			c0,5.771,4.679,10.449,10.449,10.449h26.805v41.287h-26.805c-5.77,0-10.449,4.678-10.449,10.449
			c0,5.771,4.679,10.449,10.449,10.449h26.805v41.286h-26.805c-5.77,0-10.449,4.678-10.449,10.449
			c0,5.771,4.679,10.449,10.449,10.449h26.805v41.287h-26.805c-5.77,0-10.449,4.678-10.449,10.449
			c0,5.771,4.679,10.449,10.449,10.449h26.805v29.973c0,13.404-10.905,24.31-24.309,24.31h-32.116v-26.805
			c0-5.771-4.679-10.449-10.449-10.449c-5.77,0-10.449,4.678-10.449,10.449v26.805h-41.287v-26.805
			c0-5.771-4.679-10.449-10.449-10.449c-5.77,0-10.449,4.678-10.449,10.449v26.805h-41.286v-26.805
			c0-5.771-4.679-10.449-10.449-10.449c-5.77,0-10.449,4.678-10.449,10.449v26.805h-41.287v-26.805
			c0-5.771-4.679-10.449-10.449-10.449c-5.77,0-10.449,4.678-10.449,10.449v26.805h-41.286v-26.805
			c0-5.771-4.679-10.449-10.449-10.449c-5.77,0-10.449,4.678-10.449,10.449v26.805H90.143c-13.407,0-24.315-10.906-24.315-24.311
			v-32.114h26.805c5.77,0,10.449-4.678,10.449-10.449s-4.679-10.449-10.449-10.449H65.829v-41.286h26.805
			c5.77,0,10.449-4.678,10.449-10.449s-4.679-10.449-10.449-10.449H65.829v-41.287h26.805c5.77,0,10.449-4.678,10.449-10.449
			c0-5.771-4.679-10.449-10.449-10.449H65.829v-41.286h26.805c5.77,0,10.449-4.678,10.449-10.449
			c0-5.771-4.679-10.449-10.449-10.449H65.829v-41.287h26.805c5.77,0,10.449-4.678,10.449-10.449
			c0-5.771-4.679-10.449-10.449-10.449H65.829V90.144c0-13.408,10.908-24.316,24.316-24.316h32.109v26.805
			c0,5.771,4.679,10.449,10.449,10.449c5.77,0,10.449-4.678,10.449-10.449V65.829h41.287v26.805c0,5.771,4.679,10.449,10.449,10.449
			c5.77,0,10.449-4.678,10.449-10.449V65.829h41.286v26.805c0,5.771,4.679,10.449,10.449,10.449c5.77,0,10.449-4.678,10.449-10.449
			V65.829h41.287v26.805c0,5.771,4.679,10.449,10.449,10.449c5.77,0,10.449-4.678,10.449-10.449V65.829h41.287v26.805
			c0,5.771,4.679,10.449,10.449,10.449c5.77,0,10.449-4.678,10.449-10.449V65.829h29.975c13.402,0,24.306,10.908,24.306,24.316
			V122.253z"/>
	</g>
</g>
<g>
	<g>
		<path d="M284.212,357.355H181.946c-5.77,0-10.449,4.678-10.449,10.449s4.679,10.449,10.449,10.449h102.266
			c5.77,0,10.449-4.678,10.449-10.449S289.982,357.355,284.212,357.355z"/>
	</g>
</g>
<g>
	<g>
		<path d="M332.282,357.355h-16.627c-5.77,0-10.449,4.678-10.449,10.449s4.679,10.449,10.449,10.449h16.627
			c5.77,0,10.449-4.678,10.449-10.449S338.052,357.355,332.282,357.355z"/>
	</g>
</g>
<g>
</g>
<g>
</g>
<g>
</g>
<g>
</g>
<g>
</g>
<g>
</g>
<g>
</g>
<g>
</g>
<g>
</g>
<g>
</g>
<g>
</g>
<g>
</g>
<g>
</g>
<g>
</g>
<g>
</g>
</svg>
